<svg width="60" height="60" viewBox="0 0 60 60" fill="none" xmlns="http://www.w3.org/2000/svg">
<path d="M36.25 25C34.175 25 32.5 23.325 32.5 21.25V8.75C32.5 6.675 34.175 5 36.25 5C38.325 5 40 6.675 40 8.75V21.25C40 23.325 38.325 25 36.25 25Z" stroke="#3DB582" stroke-width="2" stroke-linecap="round" stroke-linejoin="round"/>
<path d="M51.25 25H47.5V21.25C47.5 19.175 49.175 17.5 51.25 17.5C53.325 17.5 55 19.175 55 21.25C55 23.325 53.325 25 51.25 25Z" stroke="#3DB582" stroke-width="2" stroke-linecap="round" stroke-linejoin="round"/>
<path d="M23.75 35C25.825 35 27.5 36.675 27.5 38.75V51.25C27.5 53.325 25.825 55 23.75 55C21.675 55 20 53.325 20 51.25V38.75C20 36.675 21.675 35 23.75 35Z" stroke="#3DB582" stroke-width="2" stroke-linecap="round" stroke-linejoin="round"/>
<path d="M8.75 35H12.5V38.75C12.5 40.825 10.825 42.5 8.75 42.5C6.675 42.5 5 40.825 5 38.75C5 36.675 6.675 35 8.75 35Z" stroke="#3DB582" stroke-width="2" stroke-linecap="round" stroke-linejoin="round"/>
<path d="M35 36.25C35 34.175 36.675 32.5 38.75 32.5H51.25C53.325 32.5 55 34.175 55 36.25C55 38.325 53.325 40 51.25 40H38.75C36.675 40 35 38.325 35 36.25Z" stroke="#3DB582" stroke-width="2" stroke-linecap="round" stroke-linejoin="round"/>
<path d="M38.75 47.5H35V51.25C35 53.325 36.675 55 38.75 55C40.825 55 42.5 53.325 42.5 51.25C42.5 49.175 40.825 47.5 38.75 47.5Z" stroke="#3DB582" stroke-width="2" stroke-linecap="round" stroke-linejoin="round"/>
<path d="M25 23.75C25 21.675 23.325 20 21.25 20H8.75C6.675 20 5 21.675 5 23.75C5 25.825 6.675 27.5 8.75 27.5H21.25C23.325 27.5 25 25.825 25 23.75Z" stroke="#3DB582" stroke-width="2" stroke-linecap="round" stroke-linejoin="round"/>
<path d="M21.25 12.5H25V8.75C25 6.675 23.325 5 21.25 5C19.175 5 17.5 6.675 17.5 8.75C17.5 10.825 19.175 12.5 21.25 12.5Z" stroke="#3DB582" stroke-width="2" stroke-linecap="round" stroke-linejoin="round"/>
</svg>
